<svg xmlns="http://www.w3.org/2000/svg" width="360" height="240" viewBox="0 0 360 240" role="img" aria-labelledby="title"><title id="title">구급차 일러스트</title><ellipse cx="181" cy="131" rx="150" ry="94" fill="#F8F4E9"/><ellipse cx="182" cy="213" rx="143" ry="9" fill="#E4EADC"/><g stroke="#43575B" stroke-width="3.5" stroke-linecap="round" stroke-linejoin="round"><rect x="53" y="171" width="249" height="16" rx="6" fill="#43575B" /><rect x="43" y="83" width="181" height="96" rx="12" fill="#F8F4DF" /><rect x="46" y="149" width="175" height="17" rx="0" fill="#DF826E" stroke="none"/><rect x="57" y="99" width="43" height="32" rx="5" fill="#D5EBEA" /><path d="M63 106L68 106" fill="none" stroke="#FAFFF9" stroke-width="3"/><circle cx="158" cy="122" r="24" fill="#CFE3DE" stroke="none"/><path d="M145 119c-8-12 9-20 13-7 5-13 22-5 13 7l-13 15Z" fill="#DF826E" stroke="none"/><rect x="250" y="93" width="28" height="12" rx="5" fill="#DF826E" /><path d="M246 105L282 105" fill="none" /><path d="M235 105h40q10 0 16 12l22 38v29h-84v-69q0-10 6-10Z" fill="#F8F4DF" /><path d="M240 115h32l19 30h-51Z" fill="#D5EBEA" /><path d="M239 157L246 157" fill="none" /><rect x="298" y="159" width="16" height="11" rx="3" fill="#FFF6DD" /><rect x="227" y="181" width="89" height="9" rx="4" fill="#D9E1D7" /><circle cx="86" cy="191" r="22" fill="#516065" /><circle cx="86" cy="191" r="11" fill="#F6EDD8" /><circle cx="86" cy="191" r="3" fill="#92BCAF" stroke="none"/><circle cx="275" cy="191" r="22" fill="#516065" /><circle cx="275" cy="191" r="11" fill="#F6EDD8" /><circle cx="275" cy="191" r="3" fill="#92BCAF" stroke="none"/></g></svg>
