<svg xmlns="http://www.w3.org/2000/svg" width="360" height="240" viewBox="0 0 360 240" role="img" aria-labelledby="title"><title id="title">청소차 일러스트</title><ellipse cx="181" cy="131" rx="150" ry="94" fill="#F8F4E9"/><ellipse cx="182" cy="213" rx="143" ry="9" fill="#E4EADC"/><g stroke="#43575B" stroke-width="3.5" stroke-linecap="round" stroke-linejoin="round"><rect x="53" y="171" width="249" height="16" rx="6" fill="#43575B" /><rect x="43" y="83" width="181" height="96" rx="12" fill="#92BCAF" /><path d="M44 97H28v67h16" fill="#719F92" /><path d="M190 88v86" fill="none" stroke-width="3"/><rect x="100" y="114" width="39" height="38" rx="5" fill="#FFF6DD" /><path d="M94 111L145 111" fill="none" /><rect x="111" y="104" width="16" height="7" rx="3" fill="#FFF6DD" /><path d="M112 123L112 143" fill="none" stroke-width="2"/><path d="M127 123L127 143" fill="none" stroke-width="2"/><path d="M235 105h40q10 0 16 12l22 38v29h-84v-69q0-10 6-10Z" fill="#92BCAF" /><path d="M240 115h32l19 30h-51Z" fill="#D5EBEA" /><path d="M239 157L246 157" fill="none" /><rect x="298" y="159" width="16" height="11" rx="3" fill="#FFF6DD" /><rect x="227" y="181" width="89" height="9" rx="4" fill="#D9E1D7" /><circle cx="86" cy="191" r="22" fill="#516065" /><circle cx="86" cy="191" r="11" fill="#F6EDD8" /><circle cx="86" cy="191" r="3" fill="#92BCAF" stroke="none"/><circle cx="275" cy="191" r="22" fill="#516065" /><circle cx="275" cy="191" r="11" fill="#F6EDD8" /><circle cx="275" cy="191" r="3" fill="#92BCAF" stroke="none"/></g></svg>
