<svg xmlns="http://www.w3.org/2000/svg" width="360" height="240" viewBox="0 0 360 240" role="img" aria-labelledby="title"><title id="title">견인차 일러스트</title><ellipse cx="181" cy="131" rx="150" ry="94" fill="#F8F4E9"/><ellipse cx="182" cy="213" rx="143" ry="9" fill="#E4EADC"/><g stroke="#43575B" stroke-width="3.5" stroke-linecap="round" stroke-linejoin="round"><rect x="53" y="171" width="249" height="16" rx="6" fill="#43575B" /><path d="M68 151h157v24H67Z" fill="#DF826E" /><path d="M167 152 100 96H47V82h61l76 56Z" fill="#EBC468" /><path d="M145 143L99 107" fill="none" stroke="#97ABA0" stroke-width="7"/><path d="M49 96L49 129" fill="none" stroke-width="3"/><path d="M49 129v10q0 12-12 11" fill="none" stroke-width="5"/><circle cx="175" cy="148" r="7" fill="#FFF6DD" /><path d="M235 105h40q10 0 16 12l22 38v29h-84v-69q0-10 6-10Z" fill="#8CB7D0" /><path d="M240 115h32l19 30h-51Z" fill="#D5EBEA" /><path d="M239 157L246 157" fill="none" /><rect x="298" y="159" width="16" height="11" rx="3" fill="#FFF6DD" /><rect x="227" y="181" width="89" height="9" rx="4" fill="#D9E1D7" /><rect x="252" y="93" width="28" height="12" rx="5" fill="#EBC468" /><path d="M248 105L284 105" fill="none" /><circle cx="91" cy="191" r="22" fill="#516065" /><circle cx="91" cy="191" r="11" fill="#F6EDD8" /><circle cx="91" cy="191" r="3" fill="#92BCAF" stroke="none"/><circle cx="274" cy="191" r="22" fill="#516065" /><circle cx="274" cy="191" r="11" fill="#F6EDD8" /><circle cx="274" cy="191" r="3" fill="#92BCAF" stroke="none"/></g></svg>
